
      <svg data-logo="logo" xmlns="http://www.w3.org/2000/svg" viewBox="0 0 175 42">
        <g id="logogram" transform="translate(0, 1) rotate(0) "><path d="M15 0L20.4545 5.33333L0 25.3333V14.6667L15 0Z" fill="#4f39f6"/><path d="M2.90827 28.177L15 40L30 25.3334V14.6667L20.4545 5.33337L0 25.3334L0.0041688 25.3375L20.4545 5.33337V20.6667L11.25 29.6667V20.1324L2.90827 28.177Z" fill="#4f39f6"/></g>
        <g id="logotype" transform="translate(36, 8)"><path fill="#4f39f6" d="M13.52 26L8.31 26L8.31 0.54L18.24 0.54Q21.14 0.54 23.18 1.64Q25.21 2.74 26.28 4.68Q27.35 6.62 27.35 9.13L27.35 9.13Q27.35 11.66 26.26 13.58Q25.17 15.51 23.12 16.59Q21.06 17.68 18.12 17.68L18.12 17.68L11.73 17.68L11.73 13.47L17.28 13.47Q18.89 13.47 19.92 12.92Q20.95 12.36 21.46 11.39Q21.96 10.41 21.96 9.13L21.96 9.13Q21.96 7.85 21.46 6.88Q20.95 5.90 19.91 5.37Q18.87 4.84 17.26 4.84L17.26 4.84L13.52 4.84L13.52 26ZM28.77 0.54L33.89 0.54L33.89 26L28.77 26L28.77 0.54ZM41.48 26.38L41.48 26.38Q39.67 26.38 38.23 25.74Q36.78 25.09 35.95 23.82Q35.13 22.55 35.13 20.65L35.13 20.65Q35.13 19.06 35.71 17.98Q36.30 16.91 37.32 16.26Q38.34 15.61 39.63 15.27Q40.92 14.93 42.34 14.79L42.34 14.79Q43.99 14.62 45.01 14.47Q46.03 14.33 46.50 14.01Q46.97 13.70 46.97 13.08L46.97 13.08L46.97 12.99Q46.97 12.17 46.63 11.61Q46.28 11.05 45.62 10.75Q44.95 10.45 43.98 10.45L43.98 10.45Q42.99 10.45 42.25 10.75Q41.52 11.05 41.06 11.54Q40.59 12.04 40.37 12.65L40.37 12.65L35.67 11.87Q36.17 10.21 37.31 9.05Q38.46 7.88 40.16 7.27Q41.86 6.65 43.98 6.65L43.98 6.65Q45.53 6.65 46.99 7.02Q48.44 7.39 49.59 8.16Q50.75 8.93 51.42 10.16Q52.10 11.39 52.10 13.13L52.10 13.13L52.10 26L47.24 26L47.24 23.35L47.07 23.35Q46.61 24.24 45.84 24.91Q45.07 25.59 43.99 25.98Q42.90 26.38 41.48 26.38ZM42.94 22.77L42.94 22.77Q44.15 22.77 45.06 22.29Q45.98 21.81 46.49 20.99Q47.00 20.17 47.00 19.16L47.00 19.16L47.00 17.10Q46.78 17.27 46.32 17.40Q45.86 17.54 45.29 17.64Q44.73 17.75 44.18 17.83Q43.64 17.92 43.21 17.97L43.21 17.97Q42.27 18.10 41.55 18.41Q40.83 18.72 40.44 19.22Q40.05 19.73 40.05 20.51L40.05 20.51Q40.05 21.25 40.42 21.75Q40.80 22.26 41.44 22.51Q42.08 22.77 42.94 22.77ZM59.50 14.94L59.50 14.94L59.50 26L54.37 26L54.37 6.89L59.21 6.89L59.29 11.66L58.98 11.66Q59.74 9.27 61.27 7.96Q62.80 6.65 65.22 6.65L65.22 6.65Q67.20 6.65 68.67 7.52Q70.14 8.38 70.96 10.00Q71.78 11.61 71.78 13.85L71.78 13.85L71.78 26L66.66 26L66.66 14.74Q66.66 12.96 65.74 11.95Q64.83 10.94 63.21 10.94L63.21 10.94Q62.13 10.94 61.28 11.41Q60.44 11.88 59.97 12.77Q59.50 13.66 59.50 14.94ZM72.21 6.89L83.54 6.89L83.54 10.81L72.21 10.81L72.21 6.89ZM74.85 20.86L74.85 2.35L79.97 2.35L79.97 20.41Q79.97 21.32 80.37 21.75Q80.78 22.19 81.72 22.19L81.72 22.19Q82.01 22.19 82.54 22.11Q83.07 22.04 83.34 21.97L83.34 21.97L84.07 25.81Q83.22 26.07 82.37 26.17Q81.53 26.27 80.76 26.27L80.76 26.27Q77.89 26.27 76.37 24.87Q74.85 23.47 74.85 20.86L74.85 20.86ZM90.11 26.38L90.11 26.38Q88.30 26.38 86.85 25.74Q85.41 25.09 84.58 23.82Q83.75 22.55 83.75 20.65L83.75 20.65Q83.75 19.06 84.34 17.98Q84.93 16.91 85.95 16.26Q86.96 15.61 88.26 15.27Q89.55 14.93 90.96 14.79L90.96 14.79Q92.62 14.62 93.64 14.47Q94.66 14.33 95.13 14.01Q95.60 13.70 95.60 13.08L95.60 13.08L95.60 12.99Q95.60 12.17 95.25 11.61Q94.91 11.05 94.25 10.75Q93.58 10.45 92.60 10.45L92.60 10.45Q91.61 10.45 90.88 10.75Q90.14 11.05 89.68 11.54Q89.22 12.04 89.00 12.65L89.00 12.65L84.30 11.87Q84.79 10.21 85.94 9.05Q87.08 7.88 88.78 7.27Q90.49 6.65 92.60 6.65L92.60 6.65Q94.16 6.65 95.61 7.02Q97.06 7.39 98.22 8.16Q99.37 8.93 100.05 10.16Q100.72 11.39 100.72 13.13L100.72 13.13L100.72 26L95.87 26L95.87 23.35L95.70 23.35Q95.24 24.24 94.47 24.91Q93.70 25.59 92.61 25.98Q91.53 26.38 90.11 26.38ZM91.56 22.77L91.56 22.77Q92.78 22.77 93.69 22.29Q94.60 21.81 95.12 20.99Q95.63 20.17 95.63 19.16L95.63 19.16L95.63 17.10Q95.41 17.27 94.95 17.40Q94.48 17.54 93.92 17.64Q93.36 17.75 92.81 17.83Q92.26 17.92 91.84 17.97L91.84 17.97Q90.90 18.10 90.18 18.41Q89.46 18.72 89.07 19.22Q88.67 19.73 88.67 20.51L88.67 20.51Q88.67 21.25 89.05 21.75Q89.43 22.26 90.07 22.51Q90.71 22.77 91.56 22.77ZM110.59 26.38L110.59 26.38Q108.28 26.38 106.50 25.72Q104.72 25.06 103.60 23.80Q102.47 22.55 102.14 20.77L102.14 20.77L106.91 19.95Q107.29 21.28 108.23 21.95Q109.17 22.62 110.74 22.62L110.74 22.62Q112.19 22.62 113.05 22.06Q113.90 21.51 113.90 20.65L113.90 20.65Q113.90 19.90 113.29 19.42Q112.69 18.94 111.44 18.69L111.44 18.69L108.14 18.00Q105.37 17.44 104.01 16.08Q102.64 14.72 102.64 12.58L102.64 12.58Q102.64 10.74 103.65 9.41Q104.65 8.09 106.45 7.37Q108.24 6.65 110.67 6.65L110.67 6.65Q112.93 6.65 114.58 7.28Q116.24 7.90 117.27 9.05Q118.29 10.19 118.63 11.75L118.63 11.75L114.09 12.55Q113.80 11.58 112.97 10.95Q112.14 10.33 110.74 10.33L110.74 10.33Q109.47 10.33 108.62 10.86Q107.77 11.39 107.77 12.26L107.77 12.26Q107.77 12.99 108.32 13.49Q108.88 13.99 110.23 14.26L110.23 14.26L113.66 14.94Q116.43 15.51 117.78 16.78Q119.13 18.05 119.13 20.10L119.13 20.10Q119.13 21.98 118.04 23.39Q116.94 24.80 115.02 25.59Q113.10 26.38 110.59 26.38ZM128.63 16.48L125.15 20.41L125.15 14.24L125.92 14.24L132.17 6.89L138.10 6.89L129.85 16.48L128.63 16.48ZM125.63 26L120.50 26L120.50 0.54L125.63 0.54L125.63 26ZM138.46 26L132.43 26L126.69 17.63L130.12 13.99L138.46 26Z"/></g>
        
      </svg>
    